<svg width="49" height="49" viewBox="0 0 49 49" fill="none" xmlns="http://www.w3.org/2000/svg">
<g filter="url(#filter0_d_4_24)">
<path d="M34.0022 40.5728V37.7156C34.0022 37.3404 33.9376 36.9688 33.8119 36.6221C33.6863 36.2756 33.5022 35.9606 33.2701 35.6952C33.0378 35.4299 32.7622 35.2195 32.459 35.0759C32.1556 34.9323 31.8305 34.8584 31.5022 34.8584H21.5015C18.1863 34.8584 15.0068 33.3533 12.6626 30.6742C10.3184 27.9951 9.00138 24.3616 9.00133 20.5728C9.00133 18.6967 9.32466 16.8391 9.95285 15.1058C10.5811 13.3726 11.5018 11.7978 12.6626 10.4712C13.8233 9.14464 15.2013 8.09239 16.7179 7.37447C18.2345 6.65656 19.86 6.28708 21.5015 6.2871H31.5015C31.8298 6.28721 32.1551 6.21339 32.4584 6.06987C32.7618 5.92632 33.0376 5.71588 33.2697 5.45056C33.502 5.18522 33.6861 4.87021 33.8119 4.52351C33.9376 4.17681 34.0022 3.80521 34.0022 3.42993V0.572754H21.5021C19.2039 0.572754 16.9283 1.09007 14.8051 2.09517C12.6819 3.10026 10.7527 4.57346 9.12773 6.43062C7.50271 8.28781 6.21368 10.4926 5.33424 12.9191C4.4548 15.3456 4.00217 17.9463 4.0022 20.5728C4.0022 25.877 5.84592 30.9641 9.12777 34.7148C12.4096 38.4655 16.8608 40.5728 21.5021 40.5728H34.0022Z" fill="url(#paint0_linear_4_24)"/>
<path d="M14.0015 20.5728C14.0015 22.846 14.7916 25.0261 16.1981 26.6334C17.6046 28.2409 19.5122 29.1438 21.5012 29.1438H34.0023C35.3284 29.1438 36.6 29.746 37.5377 30.8176C38.4753 31.8892 39.0022 33.3426 39.0022 34.8582V40.5725H44.0023V34.8584C44.0023 31.8275 42.9487 28.9206 41.0734 26.7772C39.1979 24.634 36.6544 23.4299 34.0023 23.4299H21.5016C20.8385 23.4299 20.2026 23.1289 19.7338 22.5932C19.2649 22.0573 19.0015 21.3305 19.0015 20.5728C19.0015 19.815 19.2649 19.0883 19.7338 18.5524C20.2026 18.0166 20.8385 17.7156 21.5016 17.7156H34.0023C36.6544 17.7156 39.1979 16.5115 41.0734 14.3682C42.9487 12.225 44.0023 9.31812 44.0023 6.2871V0.572754H39.0014V6.2871C39.0014 7.80243 38.4748 9.25572 37.5373 10.3273C36.5998 11.3989 35.3283 12.001 34.0023 12.0012H21.5016C20.5166 12.0012 19.5413 12.2228 18.6313 12.6536C17.7214 13.0843 16.8945 13.7157 16.1981 14.5116C15.5016 15.3076 14.9492 16.2525 14.5723 17.2925C14.1954 18.3325 14.0014 19.4471 14.0015 20.5728Z" fill="url(#paint1_linear_4_24)"/>
</g>
<defs>
<filter id="filter0_d_4_24" x="0.00219727" y="0.572754" width="48" height="48" filterUnits="userSpaceOnUse" color-interpolation-filters="sRGB">
<feFlood flood-opacity="0" result="BackgroundImageFix"/>
<feColorMatrix in="SourceAlpha" type="matrix" values="0 0 0 0 0 0 0 0 0 0 0 0 0 0 0 0 0 0 127 0" result="hardAlpha"/>
<feOffset dy="4"/>
<feGaussianBlur stdDeviation="2"/>
<feComposite in2="hardAlpha" operator="out"/>
<feColorMatrix type="matrix" values="0 0 0 0 0 0 0 0 0 0 0 0 0 0 0 0 0 0 0.25 0"/>
<feBlend mode="normal" in2="BackgroundImageFix" result="effect1_dropShadow_4_24"/>
<feBlend mode="normal" in="SourceGraphic" in2="effect1_dropShadow_4_24" result="shape"/>
</filter>
<linearGradient id="paint0_linear_4_24" x1="8.5322" y1="20.5728" x2="47.0223" y2="20.5728" gradientUnits="userSpaceOnUse">
<stop stop-color="#F54A48"/>
<stop offset="1" stop-color="#FA982F"/>
</linearGradient>
<linearGradient id="paint1_linear_4_24" x1="8.51133" y1="20.5726" x2="47.0323" y2="20.5726" gradientUnits="userSpaceOnUse">
<stop stop-color="#F54A48"/>
<stop offset="1" stop-color="#FA982F"/>
</linearGradient>
</defs>
</svg>
